<svg xmlns="http://www.w3.org/2000/svg" viewBox="0 0 600 420" width="600" height="420" role="img" aria-label="Climatización en clínica">
<defs><linearGradient id="p2" x1="0" y1="0" x2="1" y2="1"><stop offset="0" stop-color="#0c2c4d"/><stop offset="1" stop-color="#071e35"/></linearGradient>
<radialGradient id="p2g" cx=".3" cy=".2" r=".75"><stop offset="0" stop-color="#63b0f5" stop-opacity=".38"/><stop offset="1" stop-color="#63b0f5" stop-opacity="0"/></radialGradient></defs>
<rect width="600" height="420" fill="url(#p2)"/><rect width="600" height="420" fill="url(#p2g)"/>
<path d="M60 350h480" stroke="#1d5b96" stroke-width="4"/>
<g transform="translate(80,90)">
<rect x="0" y="0" width="250" height="70" rx="14" fill="#0a2540" stroke="#7fc0f7" stroke-width="4"/>
<rect x="16" y="14" width="218" height="20" rx="7" fill="#12406b"/>
<path d="M24 52h202" stroke="#8fd0ff" stroke-width="5" stroke-linecap="round" opacity=".8"/>
</g>
<g fill="none" stroke="#8fd0ff" stroke-width="4" stroke-linecap="round" opacity=".7">
<path d="M120 190c30 30 70 32 116 16s84-10 114 20"/>
<path d="M136 236c30 30 70 32 116 16s90-6 122 24" opacity=".5"/>
</g>
<g transform="translate(390,214)"><rect x="0" y="0" width="150" height="112" rx="12" fill="#0a2540" stroke="#3d8fe0" stroke-width="4"/>
<circle cx="54" cy="56" r="34" fill="none" stroke="#7fc0f7" stroke-width="3"/><circle cx="54" cy="56" r="9" fill="#8fd0ff"/>
<path d="M54 22v68M20 56h68M30 32l48 48M78 32 30 80" stroke="#7fc0f7" stroke-width="2" opacity=".6"/>
<rect x="104" y="22" width="30" height="70" rx="6" fill="#12406b" stroke="#7fc0f7" stroke-width="2"/></g>
<g transform="translate(414,86)"><rect x="0" y="0" width="80" height="60" rx="10" fill="#0a2540" stroke="#7fc0f7" stroke-width="3"/>
<text x="40" y="39" font-family="Manrope,Arial,sans-serif" font-size="24" font-weight="700" fill="#8fd0ff" text-anchor="middle">22°</text></g>
</svg>
