<svg xmlns="http://www.w3.org/2000/svg" viewBox="0 0 800 560" width="800" height="560" role="img" aria-label="Sistema de ventilación y extracción">
<defs>
<linearGradient id="bg3" x1="0" y1="0" x2="1" y2="1"><stop offset="0" stop-color="#0c2c4d"/><stop offset="1" stop-color="#061a2e"/></linearGradient>
<radialGradient id="gl3" cx=".5" cy=".3" r=".7"><stop offset="0" stop-color="#3d8fe0" stop-opacity=".38"/><stop offset="1" stop-color="#3d8fe0" stop-opacity="0"/></radialGradient>
</defs>
<rect width="800" height="560" fill="url(#bg3)"/><rect width="800" height="560" fill="url(#gl3)"/>
<!-- ductos -->
<g fill="none" stroke="#2f7fd1" stroke-width="26" stroke-linecap="round" stroke-linejoin="round" opacity=".55">
<path d="M90 160h250v180h240"/>
<path d="M120 430h180"/>
</g>
<g fill="none" stroke="#7fc0f7" stroke-width="3" opacity=".65">
<path d="M150 141v38M210 141v38M270 141v38M330 141v38"/>
<path d="M400 322v36M460 322v36M520 322v36"/>
</g>
<!-- rejilla -->
<g transform="translate(600,282)">
<rect x="0" y="0" width="120" height="116" rx="12" fill="#0a2540" stroke="#7fc0f7" stroke-width="4"/>
<g stroke="#8fd0ff" stroke-width="5" stroke-linecap="round" opacity=".85">
<path d="M20 26h80M20 46h80M20 66h80M20 86h80"/>
</g>
</g>
<!-- extractor -->
<g transform="translate(120,120)">
<circle cx="0" cy="0" r="0"/>
</g>
<g transform="translate(330,430)">
<circle cx="0" cy="0" r="82" fill="#0a2540" stroke="#3d8fe0" stroke-width="4"/>
<g fill="#12406b" stroke="#7fc0f7" stroke-width="3">
<path d="M0-12c26-30 56-24 58 2 2 22-26 30-44 20"/>
<path d="M10 6c38 8 46 38 24 52-19 12-38-10-38-32" />
<path d="M-10 6c-38 8-46 38-24 52 19 12 38-10 38-32"/>
</g>
<circle cx="0" cy="0" r="14" fill="#8fd0ff"/>
</g>
<!-- campana de extracción -->
<g transform="translate(520,120)">
<path d="M0 0h200l-34 70H34Z" fill="#0a2540" stroke="#7fc0f7" stroke-width="4" stroke-linejoin="round"/>
<path d="M40 92h120" stroke="#8fd0ff" stroke-width="6" stroke-linecap="round"/>
</g>
<!-- flechas de flujo -->
<g stroke="#bcd8f5" stroke-width="4" fill="none" opacity=".45" stroke-linecap="round" stroke-linejoin="round">
<path d="M620 216v-58m0 0-14 16m14-16 14 16"/>
<path d="M690 236v-58m0 0-14 16m14-16 14 16"/>
</g>
</svg>
